name C:/MyDriveSym/Projects/mobilecap/Data\Session20210823_0001\mocap\ForceDataProcessed\static1_forces.mot
datacolumns 28
datarows 15
range 1.98700000 1.99400000
endheader 
time	R_ground_force_vx	R_ground_force_vy	R_ground_force_vz	R_ground_force_px	R_ground_force_py	R_ground_force_pz	R_ground_torque_x	R_ground_torque_y	R_ground_torque_z	L_ground_force_vx	L_ground_force_vy	L_ground_force_vz	L_ground_force_px	L_ground_force_py	L_ground_force_pz	L_ground_torque_x	L_ground_torque_y	L_ground_torque_z	3_ground_force_vx	3_ground_force_vy	3_ground_force_vz	3_ground_force_px	3_ground_force_py	3_ground_force_pz	3_ground_torque_x	3_ground_torque_y	3_ground_torque_z	
          1.98700000	          3.04091500	        284.34581400	        -25.16142200	         -0.23292500	          0.00600000	         -0.39429100	          0.00000000	         -0.83215500	          0.00000000	         -3.33863100	        328.44012100	         25.96324000	         -0.20301200	          0.00600000	         -0.71776900	          0.00000000	          1.45013900	          0.00000000	          0.00000000	          0.00000000	          0.00000000	          0.00000000	          0.00000000	          0.00000000	          0.00000000	          0.00000000	          0.00000000	
          1.98750000	          3.04022300	        284.34119300	        -25.15717800	         -0.23293500	          0.00600000	         -0.39428700	          0.00000000	         -0.83273000	          0.00000000	         -3.33670700	        328.44696600	         25.96388200	         -0.20301400	          0.00600000	         -0.71777500	          0.00000000	          1.45032600	          0.00000000	          0.00000000	          0.00000000	          0.00000000	          0.00000000	          0.00000000	          0.00000000	          0.00000000	          0.00000000	          0.00000000	
          1.98800000	          3.03869700	        284.33698000	        -25.15305900	         -0.23294400	          0.00600000	         -0.39428300	          0.00000000	         -0.83321900	          0.00000000	         -3.33479200	        328.45234500	         25.96489700	         -0.20301500	          0.00600000	         -0.71778000	          0.00000000	          1.45046300	          0.00000000	          0.00000000	          0.00000000	          0.00000000	          0.00000000	          0.00000000	          0.00000000	          0.00000000	          0.00000000	          0.00000000	
          1.98850000	          3.03632200	        284.33315200	        -25.14910200	         -0.23295200	          0.00600000	         -0.39428000	          0.00000000	         -0.83361100	          0.00000000	         -3.33290000	        328.45623800	         25.96625300	         -0.20301600	          0.00600000	         -0.71778500	          0.00000000	          1.45054800	          0.00000000	          0.00000000	          0.00000000	          0.00000000	          0.00000000	          0.00000000	          0.00000000	          0.00000000	          0.00000000	          0.00000000	
          1.98900000	          3.03309500	        284.32969600	        -25.14532700	         -0.23296000	          0.00600000	         -0.39427700	          0.00000000	         -0.83389700	          0.00000000	         -3.33104600	        328.45864600	         25.96795000	         -0.20301500	          0.00600000	         -0.71778900	          0.00000000	          1.45057900	          0.00000000	          0.00000000	          0.00000000	          0.00000000	          0.00000000	          0.00000000	          0.00000000	          0.00000000	          0.00000000	          0.00000000	
          1.98950000	          3.02903200	        284.32662800	        -25.14173600	         -0.23296600	          0.00600000	         -0.39427500	          0.00000000	         -0.83407400	          0.00000000	         -3.32925200	        328.45958800	         25.97001600	         -0.20301400	          0.00600000	         -0.71779200	          0.00000000	          1.45055600	          0.00000000	          0.00000000	          0.00000000	          0.00000000	          0.00000000	          0.00000000	          0.00000000	          0.00000000	          0.00000000	          0.00000000	
          1.99000000	          3.02416700	        284.32399100	        -25.13832400	         -0.23297200	          0.00600000	         -0.39427300	          0.00000000	         -0.83414800	          0.00000000	         -3.32754100	        328.45910400	         25.97248000	         -0.20301200	          0.00600000	         -0.71779500	          0.00000000	          1.45048100	          0.00000000	          0.00000000	          0.00000000	          0.00000000	          0.00000000	          0.00000000	          0.00000000	          0.00000000	          0.00000000	          0.00000000	
          1.99050000	          3.01856100	        284.32187200	        -25.13508200	         -0.23297600	          0.00600000	         -0.39427200	          0.00000000	         -0.83412500	          0.00000000	         -3.32593600	        328.45725600	         25.97535200	         -0.20300900	          0.00600000	         -0.71779600	          0.00000000	          1.45035400	          0.00000000	          0.00000000	          0.00000000	          0.00000000	          0.00000000	          0.00000000	          0.00000000	          0.00000000	          0.00000000	          0.00000000	
          1.99100000	          3.01229400	        284.32038300	        -25.13199800	         -0.23297900	          0.00600000	         -0.39427200	          0.00000000	         -0.83401700	          0.00000000	         -3.32445600	        328.45413000	         25.97860700	         -0.20300500	          0.00600000	         -0.71779700	          0.00000000	          1.45018400	          0.00000000	          0.00000000	          0.00000000	          0.00000000	          0.00000000	          0.00000000	          0.00000000	          0.00000000	          0.00000000	          0.00000000	
          1.99150000	          3.00546000	        284.31962400	        -25.12906000	         -0.23298200	          0.00600000	         -0.39427300	          0.00000000	         -0.83383200	          0.00000000	         -3.32311400	        328.44984600	         25.98219300	         -0.20300000	          0.00600000	         -0.71779700	          0.00000000	          1.44998300	          0.00000000	          0.00000000	          0.00000000	          0.00000000	          0.00000000	          0.00000000	          0.00000000	          0.00000000	          0.00000000	          0.00000000	
          1.99200000	          2.99815100	        284.31966300	        -25.12625800	         -0.23298300	          0.00600000	         -0.39427400	          0.00000000	         -0.83357600	          0.00000000	         -3.32192000	        328.44457000	         25.98604300	         -0.20299400	          0.00600000	         -0.71779700	          0.00000000	          1.44976800	          0.00000000	          0.00000000	          0.00000000	          0.00000000	          0.00000000	          0.00000000	          0.00000000	          0.00000000	          0.00000000	          0.00000000	
          1.99250000	          2.99046300	        284.32053800	        -25.12359200	         -0.23298300	          0.00600000	         -0.39427500	          0.00000000	         -0.83325400	          0.00000000	         -3.32088800	        328.43849900	         25.99008200	         -0.20298600	          0.00600000	         -0.71779600	          0.00000000	          1.44956300	          0.00000000	          0.00000000	          0.00000000	          0.00000000	          0.00000000	          0.00000000	          0.00000000	          0.00000000	          0.00000000	          0.00000000	
          1.99300000	          2.98249300	        284.32226900	        -25.12106400	         -0.23298200	          0.00600000	         -0.39427800	          0.00000000	         -0.83286800	          0.00000000	         -3.32003000	        328.43182900	         25.99424900	         -0.20297800	          0.00600000	         -0.71779500	          0.00000000	          1.44938900	          0.00000000	          0.00000000	          0.00000000	          0.00000000	          0.00000000	          0.00000000	          0.00000000	          0.00000000	          0.00000000	          0.00000000	
          1.99350000	          2.97432800	        284.32486800	        -25.11867500	         -0.23297900	          0.00600000	         -0.39428100	          0.00000000	         -0.83242000	          0.00000000	         -3.31935100	        328.42472700	         25.99850100	         -0.20296900	          0.00600000	         -0.71779300	          0.00000000	          1.44926300	          0.00000000	          0.00000000	          0.00000000	          0.00000000	          0.00000000	          0.00000000	          0.00000000	          0.00000000	          0.00000000	          0.00000000	
          1.99400000	          2.96604500	        284.32834500	        -25.11642100	         -0.23297600	          0.00600000	         -0.39428500	          0.00000000	         -0.83190800	          0.00000000	         -3.31884600	        328.41732300	         26.00281200	         -0.20296000	          0.00600000	         -0.71779100	          0.00000000	          1.44919500	          0.00000000	          0.00000000	          0.00000000	          0.00000000	          0.00000000	          0.00000000	          0.00000000	          0.00000000	          0.00000000	          0.00000000	
